<mxfile host="65bd71144e">
    <diagram id="PaTb18TGzoL1tTyuTmSt" name="Page-1">
        <mxGraphModel dx="1180" dy="1571" grid="0" gridSize="10" guides="1" tooltips="1" connect="1" arrows="1" fold="1" page="0" pageScale="1" pageWidth="850" pageHeight="1100" background="none" math="0" shadow="0">
            <root>
                <mxCell id="0"/>
                <mxCell id="1" parent="0"/>
                <mxCell id="94" value="&lt;font&gt;AnyAnimation&lt;/font&gt;" style="whiteSpace=wrap;html=1;fillColor=#fff2cc;strokeColor=#d6b656;rounded=1;fontColor=#000000;" parent="1" vertex="1">
                    <mxGeometry x="229" y="-140" width="80" height="30" as="geometry"/>
                </mxCell>
                <mxCell id="97" value="IdleAnimation" style="whiteSpace=wrap;html=1;fillColor=#fff2cc;strokeColor=#d6b656;rounded=1;fontColor=#000000;" parent="1" vertex="1">
                    <mxGeometry x="164" y="-400" width="90" height="30" as="geometry"/>
                </mxCell>
                <mxCell id="154" style="edgeStyle=none;shape=connector;html=1;labelBackgroundColor=default;strokeColor=#000000;fontFamily=Helvetica;fontSize=11;fontColor=#000000;endArrow=classic;curved=1;entryX=0.75;entryY=1;entryDx=0;entryDy=0;exitX=0.5;exitY=1;exitDx=0;exitDy=0;" parent="1" source="98" target="97" edge="1">
                    <mxGeometry relative="1" as="geometry">
                        <Array as="points">
                            <mxPoint x="500" y="-340"/>
                            <mxPoint x="230" y="-340"/>
                        </Array>
                    </mxGeometry>
                </mxCell>
                <mxCell id="155" value="horizontal velocity&lt;br&gt;&amp;nbsp;is zero" style="edgeLabel;html=1;align=center;verticalAlign=middle;resizable=0;points=[];fontSize=11;fontFamily=Helvetica;fontColor=#000000;labelBackgroundColor=#FFFFFF;fontStyle=2" parent="154" vertex="1" connectable="0">
                    <mxGeometry x="-0.116" relative="1" as="geometry">
                        <mxPoint x="-24" as="offset"/>
                    </mxGeometry>
                </mxCell>
                <mxCell id="98" value=" RunningAnimation" style="whiteSpace=wrap;html=1;fillColor=#fff2cc;strokeColor=#d6b656;rounded=1;fontColor=#000000;" parent="1" vertex="1">
                    <mxGeometry x="440" y="-400" width="120" height="30" as="geometry"/>
                </mxCell>
                <mxCell id="99" value="" style="fontColor=#000000;strokeColor=#000000;curved=1;exitX=0.75;exitY=0;exitDx=0;exitDy=0;entryX=0.5;entryY=0;entryDx=0;entryDy=0;" parent="1" source="97" target="98" edge="1">
                    <mxGeometry x="6.32" as="geometry">
                        <Array as="points">
                            <mxPoint x="230" y="-430"/>
                            <mxPoint x="500" y="-430"/>
                        </Array>
                    </mxGeometry>
                </mxCell>
                <mxCell id="147" value="&lt;span style=&quot;font-size: 12px;&quot;&gt;horizontal velocity &lt;br&gt;is not zero&lt;/span&gt;" style="edgeLabel;html=1;align=center;verticalAlign=middle;resizable=0;points=[];fontSize=11;fontFamily=Helvetica;fontColor=#000000;labelBackgroundColor=#FFFFFF;fontStyle=2" parent="99" vertex="1" connectable="0">
                    <mxGeometry relative="1" as="geometry">
                        <mxPoint x="-5" as="offset"/>
                    </mxGeometry>
                </mxCell>
                <mxCell id="150" style="edgeStyle=none;shape=connector;rounded=1;html=1;labelBackgroundColor=default;strokeColor=#000000;fontFamily=Helvetica;fontSize=11;fontColor=#000000;endArrow=classic;entryX=0.5;entryY=1;entryDx=0;entryDy=0;" parent="1" source="103" target="97" edge="1">
                    <mxGeometry relative="1" as="geometry"/>
                </mxCell>
                <mxCell id="103" value=" DashAnimation" style="whiteSpace=wrap;html=1;fillColor=#fff2cc;strokeColor=#d6b656;rounded=1;fontColor=#000000;" parent="1" vertex="1">
                    <mxGeometry x="164" y="-269" width="90" height="29" as="geometry"/>
                </mxCell>
                <mxCell id="104" value="" style="strokeColor=#000000;fontColor=#000000;exitX=0.25;exitY=0;exitDx=0;exitDy=0;" parent="1" source="94" target="103" edge="1">
                    <mxGeometry x="-404.68" y="-360" as="geometry">
                        <Array as="points">
                            <mxPoint x="209" y="-170"/>
                        </Array>
                    </mxGeometry>
                </mxCell>
                <mxCell id="135" value="&lt;span style=&quot;font-size: 12px;&quot;&gt;dash button &lt;br&gt;pressed&lt;/span&gt;" style="edgeLabel;html=1;align=center;verticalAlign=middle;resizable=0;points=[];fontSize=11;fontFamily=Helvetica;fontColor=#000000;labelBackgroundColor=#FFFFFF;fontStyle=2" parent="104" vertex="1" connectable="0">
                    <mxGeometry relative="1" as="geometry">
                        <mxPoint y="-20" as="offset"/>
                    </mxGeometry>
                </mxCell>
                <mxCell id="152" style="edgeStyle=none;shape=connector;rounded=1;html=1;labelBackgroundColor=default;strokeColor=#000000;fontFamily=Helvetica;fontSize=11;fontColor=#000000;endArrow=classic;entryX=0.5;entryY=1;entryDx=0;entryDy=0;exitX=0.5;exitY=0;exitDx=0;exitDy=0;" parent="1" source="108" target="97" edge="1">
                    <mxGeometry relative="1" as="geometry">
                        <Array as="points">
                            <mxPoint x="320" y="-300"/>
                            <mxPoint x="209" y="-300"/>
                        </Array>
                    </mxGeometry>
                </mxCell>
                <mxCell id="108" value=" AttackAnimation" style="whiteSpace=wrap;html=1;fillColor=#fff2cc;strokeColor=#d6b656;rounded=1;fontColor=#000000;" parent="1" vertex="1">
                    <mxGeometry x="269" y="-269" width="100" height="29" as="geometry"/>
                </mxCell>
                <mxCell id="109" value="" style="strokeColor=#000000;fontColor=#000000;exitX=0.75;exitY=0;exitDx=0;exitDy=0;" parent="1" source="94" target="108" edge="1">
                    <mxGeometry x="-404.68" y="-360" as="geometry">
                        <Array as="points">
                            <mxPoint x="319" y="-170"/>
                        </Array>
                    </mxGeometry>
                </mxCell>
                <mxCell id="133" value="&lt;span style=&quot;font-size: 12px;&quot;&gt;attack button &lt;br&gt;pressed&lt;/span&gt;" style="edgeLabel;html=1;align=center;verticalAlign=middle;resizable=0;points=[];fontSize=11;fontFamily=Helvetica;fontColor=#000000;labelBackgroundColor=#FFFFFF;fontStyle=2" parent="109" vertex="1" connectable="0">
                    <mxGeometry relative="1" as="geometry">
                        <mxPoint y="-16" as="offset"/>
                    </mxGeometry>
                </mxCell>
                <mxCell id="144" style="edgeStyle=none;shape=connector;rounded=1;html=1;labelBackgroundColor=default;strokeColor=#000000;fontFamily=Helvetica;fontSize=11;fontColor=#000000;endArrow=classic;entryX=1;entryY=0.5;entryDx=0;entryDy=0;" parent="1" source="112" target="117" edge="1">
                    <mxGeometry relative="1" as="geometry">
                        <mxPoint x="26.32" y="-5" as="targetPoint"/>
                    </mxGeometry>
                </mxCell>
                <mxCell id="112" value=" JumpIntroAnimation" style="whiteSpace=wrap;html=1;fillColor=#fff2cc;strokeColor=#d6b656;rounded=1;fontColor=#000000;" parent="1" vertex="1">
                    <mxGeometry x="209" y="-20" width="120" height="30" as="geometry"/>
                </mxCell>
                <mxCell id="113" value="" style="strokeColor=#000000;fontColor=#000000;" parent="1" source="94" target="112" edge="1">
                    <mxGeometry x="-404.68" y="-360" as="geometry"/>
                </mxCell>
                <mxCell id="129" value="&lt;span style=&quot;font-size: 12px;&quot;&gt;jump button pressed&lt;/span&gt;" style="edgeLabel;html=1;align=center;verticalAlign=middle;resizable=0;points=[];labelBackgroundColor=#FFFFFF;fontColor=#000000;fontStyle=2" parent="113" vertex="1" connectable="0">
                    <mxGeometry relative="1" as="geometry">
                        <mxPoint x="3" y="10" as="offset"/>
                    </mxGeometry>
                </mxCell>
                <mxCell id="142" style="edgeStyle=none;shape=connector;rounded=1;html=1;labelBackgroundColor=default;strokeColor=#000000;fontFamily=Helvetica;fontSize=11;fontColor=#000000;endArrow=classic;exitX=0.75;exitY=0;exitDx=0;exitDy=0;" parent="1" source="117" target="122" edge="1">
                    <mxGeometry relative="1" as="geometry">
                        <Array as="points">
                            <mxPoint x="-20" y="-40"/>
                            <mxPoint x="40" y="-40"/>
                        </Array>
                    </mxGeometry>
                </mxCell>
                <mxCell id="143" value="vertical velocity&lt;br&gt;&amp;nbsp;is negative" style="edgeLabel;html=1;align=center;verticalAlign=middle;resizable=0;points=[];fontSize=11;fontFamily=Helvetica;fontColor=#000000;labelBackgroundColor=#FFFFFF;fontStyle=2" parent="142" vertex="1" connectable="0">
                    <mxGeometry x="-0.2811" relative="1" as="geometry">
                        <mxPoint x="30" y="-30" as="offset"/>
                    </mxGeometry>
                </mxCell>
                <mxCell id="117" value="JumpAnimation" style="whiteSpace=wrap;html=1;fillColor=#fff2cc;strokeColor=#d6b656;rounded=1;fontColor=#000000;" parent="1" vertex="1">
                    <mxGeometry x="-80" y="-20" width="80" height="30" as="geometry"/>
                </mxCell>
                <mxCell id="148" style="edgeStyle=none;shape=connector;rounded=1;html=1;labelBackgroundColor=default;strokeColor=#000000;fontFamily=Helvetica;fontSize=11;fontColor=#000000;endArrow=classic;entryX=0.5;entryY=1;entryDx=0;entryDy=0;exitX=0.5;exitY=0;exitDx=0;exitDy=0;" parent="1" source="118" target="97" edge="1">
                    <mxGeometry relative="1" as="geometry">
                        <mxPoint x="21" y="-262" as="sourcePoint"/>
                        <Array as="points">
                            <mxPoint x="-40" y="-300"/>
                            <mxPoint x="209" y="-300"/>
                        </Array>
                    </mxGeometry>
                </mxCell>
                <mxCell id="118" value=" LandAnimation" style="whiteSpace=wrap;html=1;fillColor=#fff2cc;strokeColor=#d6b656;rounded=1;fontColor=#000000;" parent="1" vertex="1">
                    <mxGeometry x="-90" y="-269" width="100" height="29" as="geometry"/>
                </mxCell>
                <mxCell id="119" value="" style="labelBackgroundColor=#FFFFFF;fontColor=#000000;strokeColor=#000000;entryX=0.5;entryY=1;entryDx=0;entryDy=0;exitX=0.5;exitY=0;exitDx=0;exitDy=0;" parent="1" source="117" target="118" edge="1">
                    <mxGeometry as="geometry">
                        <mxPoint x="10" as="offset"/>
                        <mxPoint x="-60" y="-20" as="sourcePoint"/>
                    </mxGeometry>
                </mxCell>
                <mxCell id="160" style="edgeStyle=none;shape=connector;rounded=1;html=1;labelBackgroundColor=default;strokeColor=#000000;fontFamily=Helvetica;fontSize=11;fontColor=#000000;endArrow=classic;entryX=0.5;entryY=1;entryDx=0;entryDy=0;exitX=0.5;exitY=0;exitDx=0;exitDy=0;" edge="1" parent="1" source="122" target="118">
                    <mxGeometry relative="1" as="geometry">
                        <mxPoint x="-42" y="-240" as="targetPoint"/>
                        <Array as="points">
                            <mxPoint x="40" y="-160"/>
                            <mxPoint x="-40" y="-160"/>
                            <mxPoint x="-40" y="-200"/>
                        </Array>
                    </mxGeometry>
                </mxCell>
                <mxCell id="161" value="grounded" style="edgeLabel;html=1;align=center;verticalAlign=middle;resizable=0;points=[];fontSize=11;fontFamily=Helvetica;fontColor=#000000;labelBackgroundColor=#FFFFFF;fontStyle=2" vertex="1" connectable="0" parent="160">
                    <mxGeometry x="-0.231" y="-2" relative="1" as="geometry">
                        <mxPoint x="-31" y="-48" as="offset"/>
                    </mxGeometry>
                </mxCell>
                <mxCell id="122" value=" FallAnimation" style="whiteSpace=wrap;html=1;fillColor=#fff2cc;strokeColor=#d6b656;rounded=1;fontColor=#000000;" parent="1" vertex="1">
                    <mxGeometry y="-140" width="80" height="30" as="geometry"/>
                </mxCell>
                <mxCell id="123" value="" style="strokeColor=#000000;fontColor=#000000;" parent="1" source="94" target="122" edge="1">
                    <mxGeometry x="-313.68" y="-360" as="geometry"/>
                </mxCell>
                <mxCell id="134" value="&lt;span style=&quot;font-size: 12px;&quot;&gt;vertical velocity is &lt;br&gt;negative or affected &lt;br&gt;by external forces&lt;/span&gt;" style="edgeLabel;html=1;align=center;verticalAlign=middle;resizable=0;points=[];fontSize=11;fontFamily=Helvetica;fontColor=#000000;labelBackgroundColor=#FFFFFF;fontStyle=2" parent="123" vertex="1" connectable="0">
                    <mxGeometry relative="1" as="geometry">
                        <mxPoint x="5" as="offset"/>
                    </mxGeometry>
                </mxCell>
                <mxCell id="132" style="edgeStyle=none;html=1;strokeColor=#000000;fontColor=#000000;" parent="1" source="130" target="97" edge="1">
                    <mxGeometry relative="1" as="geometry">
                        <mxPoint x="278" y="-251" as="targetPoint"/>
                    </mxGeometry>
                </mxCell>
                <mxCell id="130" value="" style="ellipse;whiteSpace=wrap;html=1;aspect=fixed;strokeColor=none;fillColor=#000000;" parent="1" vertex="1">
                    <mxGeometry x="199" y="-480" width="20" height="20" as="geometry"/>
                </mxCell>
            </root>
        </mxGraphModel>
    </diagram>
</mxfile>